<mxfile host="65bd71144e">
    <diagram id="imhpNbKGNZqrnqXEHDXH" name="Page-1">
        <mxGraphModel dx="784" dy="613" grid="1" gridSize="10" guides="1" tooltips="1" connect="1" arrows="1" fold="1" page="1" pageScale="1" pageWidth="850" pageHeight="1100" math="0" shadow="0">
            <root>
                <mxCell id="0"/>
                <mxCell id="1" parent="0"/>
                <mxCell id="4" value="" style="verticalLabelPosition=bottom;verticalAlign=top;html=1;shape=mxgraph.basic.star;fillColor=#FF0000;fontColor=#ffffff;strokeColor=none;" vertex="1" parent="1">
                    <mxGeometry x="120" y="200" width="120" height="120" as="geometry"/>
                </mxCell>
                <mxCell id="5" value="" style="verticalLabelPosition=bottom;verticalAlign=top;html=1;shape=mxgraph.basic.star;fillColor=#FF0000;fontColor=#ffffff;strokeColor=none;" vertex="1" parent="1">
                    <mxGeometry x="260" y="200" width="120" height="120" as="geometry"/>
                </mxCell>
                <mxCell id="6" value="" style="verticalLabelPosition=bottom;verticalAlign=top;html=1;shape=mxgraph.basic.star;fillColor=#FF0000;fontColor=#ffffff;strokeColor=none;" vertex="1" parent="1">
                    <mxGeometry x="400" y="200" width="120" height="120" as="geometry"/>
                </mxCell>
                <mxCell id="7" value="" style="verticalLabelPosition=bottom;verticalAlign=top;html=1;shape=mxgraph.basic.star;fillColor=#FF0000;fontColor=#ffffff;strokeColor=none;" vertex="1" parent="1">
                    <mxGeometry x="540" y="200" width="120" height="120" as="geometry"/>
                </mxCell>
                <mxCell id="8" value="" style="verticalLabelPosition=bottom;verticalAlign=top;html=1;shape=mxgraph.basic.star;fillColor=#FF0000;fontColor=#ffffff;strokeColor=none;" vertex="1" parent="1">
                    <mxGeometry x="680" y="200" width="120" height="120" as="geometry"/>
                </mxCell>
            </root>
        </mxGraphModel>
    </diagram>
</mxfile>